# xmcd
#
# Track frame offsets: 
#        150
#        4107
#        36851
#        56656
#        72831
#        95395
#        123340
#        139152
#        166602
#        198564
#        218005
#        232740
#        250112
#        261908
#
# Disc length: 3893 seconds
#
# Revision: 0
# Processed by: cddbd v1.5.1PL2 Copyright (c) Steve Scherf et al.
# Submitted via: ExactAudioCopy v0.95a4
#
DISCID=b90f330e
DTITLE=Whiskeytown - Cat's Cradle - 12-31-99 - Set 2
DYEAR=1999
DGENRE=Country
TTITLE0=Intro
TTITLE1=Inn Town
TTITLE2=Excuse Me (While I Break)
TTITLE3=Yesterday's News
TTITLE4=16 Days
TTITLE5=Everything I Do
TTITLE6=Houses on the Hill
TTITLE7=Turn Around
TTITLE8=Dancing With the Women
TTITLE9=Waiting to Derail
TTITLE10=Avenues
TTITLE11=Losering
TTITLE12=Somebody Remembers the Rose
TTITLE13=Not Home Anymore
EXTD=
EXTT0=
EXTT1=
EXTT2=
EXTT3=
EXTT4=
EXTT5=
EXTT6=
EXTT7=
EXTT8=
EXTT9=
EXTT10=
EXTT11=
EXTT12=
EXTT13=
PLAYORDER=
